#!OML:ASF G:\JayActor3\Patient Classification 1\Patient 1\Session 5\male.ASF
:FULLY-SPECIFIED
:DEGREES
994
root 21.4814 16.8575 -0.639249 -2.19241 -78.2971 -2.44462
lowerback 6.55248 -0.592933 0.456277
upperback 2.02491 -0.81492 -0.89359
thorax -1.60581 -0.421846 -1.11076
lowerneck -2.4132 0.126001 4.80278
upperneck 3.31164 -0.0161449 -0.366261
head 1.43822 0.0399271 -0.925266
rclavicle 3.13831e-014 -4.77083e-015
rhumerus -41.0647 -16.1325 -82.3123
rradius 22.4256
rwrist 9.50195
rhand -19.9389 -8.71508
rfingers 7.12502
rthumb 6.39879 -38.5984
lclavicle 3.13831e-014 -4.77083e-015
lhumerus -36.969 19.7884 73.7685
lradius 14.4482
lwrist 10.0706
lhand -20.8565 13.9404
lfingers 7.12502
lthumb 5.5129 43.8487
rfemur -63.1709 2.91972 27.3734
rtibia 141.991
rfoot -13.3822 -12.5263
rtoes -14.6633
lfemur 10.2364 8.84525 -24.5307
ltibia -3.97569e-015
lfoot -5.87376 1.50898
ltoes 2.56522
995
root 21.4654 16.8577 -0.637737 -2.17752 -78.2959 -2.45179
lowerback 6.54808 -0.582316 0.490357
upperback 2.01753 -0.798287 -0.887632
thorax -1.61094 -0.413513 -1.12508
lowerneck -2.40885 0.120244 4.81363
upperneck 3.29969 -0.0224275 -0.399471
head 1.43369 0.0362328 -0.937677
rclavicle -1.32068e-014 -1.98785e-015
rhumerus -41.0726 -16.1088 -82.3223
rradius 22.4248
rwrist 9.47322
rhand -19.9459 -8.7356
rfingers 7.12502
rthumb 6.39204 -38.6192
lclavicle -1.32068e-014 -1.98785e-015
lhumerus -36.9491 19.7547 73.8245
lradius 14.4542
lwrist 10.1077
lhand -20.8793 13.9716
lfingers 7.12502
lthumb 5.49085 43.8805
rfemur -63.2052 2.90896 27.4
rtibia 142.087
rfoot -13.5577 -12.5555
rtoes -14.638
lfemur 10.2943 8.75652 -24.5346
ltibia 1.98785e-014
lfoot -5.92776 1.61176
ltoes 2.56701
996
root 21.4495 16.8578 -0.636285 -2.14233 -78.3028 -2.47715
lowerback 6.54677 -0.570782 0.525192
upperback 2.00424 -0.780216 -0.878003
thorax -1.62376 -0.404473 -1.1361
lowerneck -2.40254 0.116809 4.82611
upperneck 3.29466 -0.0255241 -0.436765
head 1.43113 0.034182 -0.951635
rclavicle -1.49089e-016 1.11319e-014
rhumerus -41.0831 -16.0766 -82.3251
rradius 22.4164
rwrist 9.44843
rhand -19.95 -8.75539
rfingers 7.12502
rthumb 6.38811 -38.6391
lclavicle -1.49089e-016 1.11319e-014
lhumerus -36.9442 19.7074 73.8927
lradius 14.4726
lwrist 10.1683
lhand -20.9097 13.9978
lfingers 7.12502
lthumb 5.46153 43.9074
rfemur -63.236 2.92933 27.4565
rtibia 142.188
rfoot -13.7301 -12.6008
rtoes -14.6207
lfemur 10.3489 8.67526 -24.5328
ltibia 1.27222e-014
lfoot -5.98302 1.71215
ltoes 2.56704
997
root 21.4335 16.8578 -0.63495 -2.09515 -78.3176 -2.51169
lowerback 6.54755 -0.554513 0.562234
upperback 1.98897 -0.755632 -0.866681
thorax -1.63963 -0.3922 -1.1471
lowerneck -2.41072 0.112641 4.83989
upperneck 3.30011 -0.0305316 -0.475082
head 1.43442 0.0313434 -0.966312
rclavicle 2.97929e-014 -4.37326e-015
rhumerus -41.0957 -16.0573 -82.3134
rradius 22.407
rwrist 9.43426
rhand -19.9512 -8.76587
rfingers 7.12502
rthumb 6.38693 -38.6496
lclavicle 2.97929e-014 -4.37326e-015
lhumerus -36.9396 19.6378 73.9809
lradius 14.4983
lwrist 10.2528
lhand -20.9394 14.0134
lfingers 7.12502
lthumb 5.43286 43.9237
rfemur -63.266 2.98152 27.5351
rtibia 142.291
rfoot -13.896 -12.6512
rtoes -14.6224
lfemur 10.4 8.60125 -24.5267
ltibia -1.59028e-014
lfoot -6.04004 1.80812
ltoes 2.56105
998
root 21.4174 16.8576 -0.633801 -2.06056 -78.3351 -2.53084
lowerback 6.5477 -0.53635 0.593688
upperback 1.97108 -0.728861 -0.855966
thorax -1.65769 -0.37884 -1.15576
lowerneck -2.4183 0.110325 4.85836
upperneck 3.3058 -0.0333484 -0.510882
head 1.43774 0.0296872 -0.980963
rclavicle -3.4427e-014 3.97569e-016
rhumerus -41.1129 -16.0535 -82.289
rradius 22.3941
rwrist 9.43246
rhand -19.9501 -8.77215
rfingers 7.12502
rthumb 6.38799 -38.6558
lclavicle -3.4427e-014 3.97569e-016
lhumerus -36.9386 19.5356 74.0893
lradius 14.5329
lwrist 10.3702
lhand -20.9645 14.0259
lfingers 7.12502
lthumb 5.40858 43.9369
rfemur -63.2961 3.04994 27.6218
rtibia 142.397
rfoot -14.0491 -12.6947
rtoes -14.642
lfemur 10.4468 8.52973 -24.5221
ltibia -4.77083e-014
lfoot -6.09501 1.89997
ltoes 2.56008
999
root 21.4013 16.8571 -0.632993 -2.04923 -78.3521 -2.52401
lowerback 6.5452 -0.519537 0.612092
upperback 1.95439 -0.704741 -0.844858
thorax -1.67296 -0.366794 -1.15652
lowerneck -2.43167 0.113158 4.88173
upperneck 3.31116 -0.0299595 -0.543097
head 1.44217 0.0312376 -0.995241
rclavicle 1.00262e-014 0
rhumerus -41.1286 -16.0757 -82.2463
rradius 22.3759
rwrist 9.45714
rhand -19.9474 -8.77107
rfingers 7.12502
rthumb 6.39056 -38.6547
lclavicle 1.00262e-014 0
lhumerus -36.9359 19.4154 74.2143
lradius 14.5713
lwrist 10.5071
lhand -20.9832 14.0342
lfingers 7.12502
lthumb 5.39054 43.9457
rfemur -63.3317 3.1208 27.7046
rtibia 142.502
rfoot -14.1828 -12.7202
rtoes -14.6674
lfemur 10.4885 8.45757 -24.5217
ltibia -3.65764e-014
lfoot -6.14659 1.98904
ltoes 2.54304
1000
root 21.3851 16.8564 -0.632524 -2.0709 -78.3655 -2.48243
lowerback 6.54066 -0.505905 0.615128
upperback 1.93842 -0.685893 -0.834781
thorax -1.68631 -0.357363 -1.14931
lowerneck -2.44043 0.121471 4.90763
upperneck 3.30854 -0.0194736 -0.564567
head 1.44342 0.0364044 -1.00635
rclavicle -2.23012e-014 1.07344e-014
rhumerus -41.1421 -16.1115 -82.1945
rradius 22.3517
rwrist 9.49006
rhand -19.9517 -8.76472
rfingers 7.12502
rthumb 6.38644 -38.6484
lclavicle -2.23012e-014 1.07344e-014
lhumerus -36.9339 19.2949 74.3405
lradius 14.6053
lwrist 10.6387
lhand -20.9868 14.0381
lfingers 7.12502
lthumb 5.38708 43.9496
rfemur -63.3698 3.18029 27.7763
rtibia 142.607
rfoot -14.3033 -12.7329
rtoes -14.7191
lfemur 10.5268 8.38192 -24.5281
ltibia 4.77083e-015
lfoot -6.19517 2.07652
ltoes 2.52435
1001
root 21.3688 16.8555 -0.632449 -2.12383 -78.3749 -2.40898
lowerback 6.53123 -0.495507 0.602109
upperback 1.92787 -0.672479 -0.824609
thorax -1.69133 -0.35061 -1.13261
lowerneck -2.44778 0.134092 4.93183
upperneck 3.29282 -0.00339064 -0.574748
head 1.44033 0.0443331 -1.01339
rclavicle 1.43125e-014 -7.95139e-015
rhumerus -41.1453 -16.1644 -82.1332
rradius 22.3226
rwrist 9.5311
rhand -19.9665 -8.75376
rfingers 7.12502
rthumb 6.37212 -38.6379
lclavicle 1.43125e-014 -7.95139e-015
lhumerus -36.9262 19.1752 74.4709
lradius 14.6348
lwrist 10.7545
lhand -20.9672 14.0399
lfingers 7.12502
lthumb 5.40603 43.9509
rfemur -63.4113 3.22433 27.8353
rtibia 142.708
rfoot -14.4133 -12.7436
rtoes -14.7767
lfemur 10.5635 8.30246 -24.5408
ltibia -2.22639e-014
lfoot -6.24268 2.16493
ltoes 2.50135
1002
root 21.3526 16.8544 -0.632569 -2.21055 -78.3793 -2.30452
lowerback 6.51999 -0.487476 0.578929
upperback 1.92212 -0.662969 -0.815197
thorax -1.6904 -0.345789 -1.11072
lowerneck -2.4477 0.147815 4.94773
upperneck 3.26411 0.0144877 -0.570615
head 1.43174 0.053092 -1.01431
rclavicle -7.51655e-015 9.14409e-015
rhumerus -41.1406 -16.2261 -82.0654
rradius 22.2901
rwrist 9.56701
rhand -19.9922 -8.74506
rfingers 7.12502
rthumb 6.34735 -38.63
lclavicle -7.51655e-015 9.14409e-015
lhumerus -36.9127 19.0788 74.5917
lradius 14.6482
lwrist 10.8338
lhand -20.9369 14.0486
lfingers 7.12502
lthumb 5.43527 43.9589
rfemur -63.4489 3.24639 27.877
rtibia 142.805
rfoot -14.516 -12.7541
rtoes -14.8276
lfemur 10.6039 8.21867 -24.5603
ltibia -2.62396e-014
lfoot -6.29145 2.25613
ltoes 2.48511
1003
root 21.3363 16.853 -0.632861 -2.31532 -78.3798 -2.18635
lowerback 6.50767 -0.48197 0.549865
upperback 1.92093 -0.657289 -0.806519
thorax -1.68423 -0.342871 -1.08601
lowerneck -2.43315 0.161149 4.96186
upperneck 3.21908 0.0326931 -0.560616
head 1.41538 0.0618301 -1.01289
rclavicle 1.44367e-014 -4.37326e-015
rhumerus -41.1266 -16.2875 -81.9992
rradius 22.2543
rwrist 9.5931
rhand -20.0315 -8.7415
rfingers 7.12502
rthumb 6.30937 -38.6275
lclavicle 1.44367e-014 -4.37326e-015
lhumerus -36.8949 18.9933 74.7061
lradius 14.6505
lwrist 10.8925
lhand -20.8953 14.07
lfingers 7.12502
lthumb 5.4754 43.9793
rfemur -63.4803 3.25091 27.9064
rtibia 142.895
rfoot -14.6207 -12.7723
rtoes -14.8714
lfemur 10.6511 8.13159 -24.5826
ltibia 7.95139e-015
lfoot -6.3444 2.35076
ltoes 2.48651
1004
root 21.32 16.8516 -0.63324 -2.40941 -78.3792 -2.08737
lowerback 6.49822 -0.479084 0.524765
upperback 1.92449 -0.654935 -0.798799
thorax -1.67491 -0.341634 -1.06425
lowerneck -2.40756 0.174085 4.98199
upperneck 3.16244 0.0510446 -0.554368
head 1.39345 0.0704596 -1.01359
rclavicle -3.69243e-014 2.5842e-015
rhumerus -41.1043 -16.3493 -81.9385
rradius 22.2148
rwrist 9.62012
rhand -20.0795 -8.74582
rfingers 7.12502
rthumb 6.26305 -38.6332
lclavicle -3.69243e-014 2.5842e-015
lhumerus -36.8759 18.9349 74.7983
lradius 14.6381
lwrist 10.9128
lhand -20.842 14.0931
lfingers 7.12502
lthumb 5.52692 44.0011
rfemur -63.499 3.25768 27.9368
rtibia 142.976
rfoot -14.7261 -12.8065
rtoes -14.8943
lfemur 10.71 8.044 -24.6003
ltibia -5.24792e-014
lfoot -6.40203 2.45055
ltoes 2.49324
1005
root 21.3035 16.85 -0.63355 -2.47051 -78.3807 -2.03086
lowerback 6.4939 -0.475836 0.513205
upperback 1.93288 -0.651316 -0.79159
thorax -1.66358 -0.339803 -1.0507
lowerneck -2.38049 0.183582 5.00663
upperneck 3.10333 0.0650227 -0.55458
head 1.37044 0.0768074 -1.0172
rclavicle -2.33199e-014 -1.39149e-015
rhumerus -41.0767 -16.412 -81.8843
rradius 22.1761
rwrist 9.65499
rhand -20.1367 -8.74565
rfingers 7.12502
rthumb 6.20787 -38.6347
lclavicle -2.33199e-014 -1.39149e-015
lhumerus -36.8532 18.9267 74.8547
lradius 14.6024
lwrist 10.8706
lhand -20.7838 14.1083
lfingers 7.12502
lthumb 5.58306 44.0147
rfemur -63.5046 3.28401 27.9752
rtibia 143.044
rfoot -14.8361 -12.8592
rtoes -14.8952
lfemur 10.7818 7.95876 -24.6082
ltibia -1.98785e-014
lfoot -6.46529 2.55491
ltoes 2.506
